<svg width="86" height="86" viewBox="0 0 86 86" fill="none" xmlns="http://www.w3.org/2000/svg">
<circle cx="43" cy="43" r="43" fill="#232F3D"/>
<path d="M46.959 44.5766C46.959 46.4922 45.4103 48.045 43.5 48.045C41.5897 48.045 40.041 46.4922 40.041 44.5766C40.041 42.661 41.5897 41.1081 43.5 41.1081C45.4103 41.1081 46.959 42.661 46.959 44.5766Z" fill="white"/>
<path fill-rule="evenodd" clip-rule="evenodd" d="M49.2487 36.0631H51.9902C53.6525 36.0631 55 37.4143 55 39.0811V49.982C55 51.6488 53.6525 53 51.9902 53H35.0098C33.3475 53 32 51.6488 32 49.982V39.0811C32 37.4143 33.3475 36.0631 35.0098 36.0631H37.7513C37.7988 34.3633 39.1879 33 40.8945 33H46.1055C47.8121 33 49.2012 34.3633 49.2487 36.0631ZM43.5 50.027C46.502 50.027 48.9355 47.5868 48.9355 44.5766C48.9355 41.5664 46.502 39.1261 43.5 39.1261C40.498 39.1261 38.0645 41.5664 38.0645 44.5766C38.0645 47.5868 40.498 50.027 43.5 50.027Z" fill="white"/>
</svg>
